<svg width="32" height="32" viewBox="0 0 32 32" fill="none" xmlns="http://www.w3.org/2000/svg">
<path d="M16.0001 2.66667C8.64808 2.66667 2.66675 8.64801 2.66675 16C2.66675 23.352 8.64808 29.3333 16.0001 29.3333C23.3521 29.3333 29.3334 23.352 29.3334 16C29.3334 8.64801 23.3521 2.66667 16.0001 2.66667ZM16.0001 26.6667C10.1187 26.6667 5.33341 21.8813 5.33341 16C5.33341 10.1187 10.1187 5.33334 16.0001 5.33334C21.8814 5.33334 26.6667 10.1187 26.6667 16C26.6667 21.8813 21.8814 26.6667 16.0001 26.6667Z" fill="white"/>
<path d="M17.3334 9.33333H14.6667V16.552L19.0574 20.9427L20.9427 19.0573L17.3334 15.448V9.33333Z" fill="white"/>
</svg>
