<svg width="60" height="60" viewBox="0 0 60 60" fill="none" xmlns="http://www.w3.org/2000/svg">
<circle cx="30" cy="30" r="30" fill="#EC4E20"/>
<path d="M18.0255 38.7615C18.259 38.9959 18.438 39.279 18.5496 39.5905C18.6612 39.902 18.7028 40.2343 18.6712 40.5637C18.5131 42.0883 18.2133 43.5948 17.7757 45.0637C20.9145 44.337 22.8315 43.4955 23.7023 43.0545C24.1961 42.8044 24.7649 42.7451 25.2997 42.888C26.833 43.2968 28.4132 43.5025 30 43.5C38.991 43.5 45.75 37.1842 45.75 30C45.75 22.818 38.991 16.5 30 16.5C21.009 16.5 14.25 22.818 14.25 30C14.25 33.303 15.6382 36.3675 18.0255 38.7615ZM16.9162 47.5477C16.3832 47.6534 15.8483 47.7502 15.312 47.838C14.862 47.91 14.52 47.442 14.6978 47.0235C14.8975 46.5523 15.0806 46.0743 15.2467 45.5903L15.2535 45.5677C15.8115 43.9478 16.266 42.0848 16.4325 40.35C13.6718 37.5825 12 33.96 12 30C12 21.3015 20.0595 14.25 30 14.25C39.9405 14.25 48 21.3015 48 30C48 38.6985 39.9405 45.75 30 45.75C28.2172 45.7524 26.4418 45.5209 24.7192 45.0615C23.5492 45.6532 21.0315 46.731 16.9162 47.5477Z" fill="white"/>
</svg>
