<svg width="60" height="60" viewBox="0 0 60 60" fill="none" xmlns="http://www.w3.org/2000/svg">
<circle cx="30" cy="30" r="30" fill="#EC4E20"/>
<path d="M42.3754 30.855V29.1337L44.5354 27.2437C44.9336 26.8928 45.1949 26.4124 45.2731 25.8874C45.3513 25.3625 45.2414 24.8268 44.9629 24.375L42.3079 19.875C42.1106 19.5333 41.827 19.2495 41.4853 19.052C41.1437 18.8546 40.7562 18.7504 40.3617 18.75C40.1171 18.7481 39.8739 18.7861 39.6417 18.8625L36.9079 19.785C36.4359 19.4714 35.9436 19.1895 35.4342 18.9412L34.8604 16.1062C34.7575 15.5883 34.4758 15.123 34.0644 14.7919C33.6531 14.4608 33.1384 14.2849 32.6104 14.295H27.3454C26.8174 14.2849 26.3027 14.4608 25.8914 14.7919C25.4801 15.123 25.1983 15.5883 25.0954 16.1062L24.5217 18.9412C24.0086 19.1894 23.5125 19.4713 23.0367 19.785L20.3592 18.8175C20.1244 18.7563 19.8812 18.7335 19.6392 18.75C19.2446 18.7504 18.8571 18.8546 18.5155 19.052C18.1739 19.2495 17.8902 19.5333 17.6929 19.875L15.0379 24.375C14.7753 24.8261 14.6777 25.3545 14.7619 25.8696C14.846 26.3848 15.1067 26.8546 15.4992 27.1987L17.6254 29.145V30.8662L15.4992 32.7563C15.0956 33.1027 14.8278 33.581 14.7434 34.1062C14.6589 34.6314 14.7633 35.1695 15.0379 35.625L17.6929 40.125C17.8902 40.4667 18.1739 40.7505 18.5155 40.948C18.8571 41.1454 19.2446 41.2496 19.6392 41.25C19.8837 41.2519 20.1269 41.2139 20.3592 41.1375L23.0929 40.215C23.5649 40.5286 24.0572 40.8105 24.5667 41.0588L25.1404 43.8937C25.2433 44.4117 25.5251 44.877 25.9364 45.2081C26.3477 45.5392 26.8624 45.7151 27.3904 45.705H32.7004C33.2284 45.7151 33.7431 45.5392 34.1544 45.2081C34.5658 44.877 34.8475 44.4117 34.9504 43.8937L35.5242 41.0588C36.0372 40.8106 36.5333 40.5287 37.0092 40.215L39.7317 41.1375C39.9639 41.2139 40.2071 41.2519 40.4517 41.25C40.8462 41.2496 41.2337 41.1454 41.5753 40.948C41.917 40.7505 42.2006 40.4667 42.3979 40.125L44.9629 35.625C45.2255 35.1739 45.3231 34.6455 45.2389 34.1304C45.1548 33.6152 44.8941 33.1454 44.5017 32.8012L42.3754 30.855ZM40.3617 39L36.5029 37.695C35.5996 38.4601 34.5672 39.0582 33.4542 39.4612L32.6554 43.5H27.3454L26.5467 39.5063C25.4424 39.0918 24.4156 38.4947 23.5092 37.74L19.6392 39L16.9842 34.5L20.0442 31.8C19.8361 30.6355 19.8361 29.4433 20.0442 28.2787L16.9842 25.5L19.6392 21L23.4979 22.305C24.4012 21.5399 25.4336 20.9418 26.5467 20.5388L27.3454 16.5H32.6554L33.4542 20.4938C34.5584 20.9082 35.5852 21.5053 36.4917 22.26L40.3617 21L43.0167 25.5L39.9567 28.2C40.1647 29.3645 40.1647 30.5567 39.9567 31.7213L43.0167 34.5L40.3617 39Z" fill="white"/>
<path d="M30 36.75C28.665 36.75 27.3599 36.3541 26.2499 35.6124C25.1399 34.8707 24.2747 33.8165 23.7638 32.5831C23.2529 31.3497 23.1193 29.9925 23.3797 28.6831C23.6402 27.3738 24.283 26.171 25.227 25.227C26.171 24.283 27.3738 23.6402 28.6831 23.3797C29.9925 23.1193 31.3497 23.2529 32.5831 23.7638C33.8165 24.2747 34.8707 25.1399 35.6124 26.2499C36.3541 27.3599 36.75 28.665 36.75 30C36.759 30.8889 36.5906 31.7707 36.2546 32.5938C35.9186 33.4168 35.4217 34.1645 34.7931 34.7931C34.1645 35.4217 33.4168 35.9185 32.5938 36.2546C31.7707 36.5906 30.8889 36.759 30 36.75ZM30 25.5C29.4053 25.4861 28.8139 25.5931 28.2617 25.8143C27.7094 26.0356 27.2078 26.3665 26.7872 26.7872C26.3665 27.2078 26.0356 27.7094 25.8143 28.2617C25.5931 28.8139 25.4861 29.4053 25.5 30C25.4861 30.5947 25.5931 31.1861 25.8143 31.7383C26.0356 32.2906 26.3665 32.7922 26.7872 33.2128C27.2078 33.6335 27.7094 33.9644 28.2617 34.1857C28.8139 34.4069 29.4053 34.5139 30 34.5C30.5947 34.5139 31.1861 34.4069 31.7383 34.1857C32.2906 33.9644 32.7922 33.6335 33.2128 33.2128C33.6335 32.7922 33.9644 32.2906 34.1857 31.7383C34.4069 31.1861 34.5139 30.5947 34.5 30C34.5139 29.4053 34.4069 28.8139 34.1857 28.2617C33.9644 27.7094 33.6335 27.2078 33.2128 26.7872C32.7922 26.3665 32.2906 26.0356 31.7383 25.8143C31.1861 25.5931 30.5947 25.4861 30 25.5Z" fill="white"/>
</svg>
