<svg width="54" height="54" viewBox="0 0 54 54" fill="none" xmlns="http://www.w3.org/2000/svg">
<circle cx="27" cy="27" r="26.5" stroke="#6DD3CE"/>
<path d="M27.0916 36.33C25.8449 36.33 24.8623 36.0953 24.1436 35.626C23.4396 35.1567 22.9336 34.504 22.6256 33.668C22.3323 32.8173 22.1856 31.842 22.1856 30.742V30.104H25.8596C25.8596 30.1187 25.8596 30.1993 25.8596 30.346C25.8596 30.4927 25.8596 30.6247 25.8596 30.742C25.8596 31.3287 25.8963 31.8053 25.9696 32.172C26.0429 32.5387 26.1749 32.81 26.3656 32.986C26.5563 33.1473 26.8203 33.228 27.1576 33.228C27.4949 33.228 27.7443 33.14 27.9056 32.964C28.0816 32.788 28.1989 32.524 28.2576 32.172C28.3163 31.82 28.3456 31.38 28.3456 30.852C28.3456 29.972 28.2209 29.3047 27.9716 28.85C27.7369 28.3807 27.2383 28.1387 26.4756 28.124C26.4609 28.124 26.3803 28.124 26.2336 28.124C26.0869 28.124 25.9403 28.124 25.7936 28.124V25.594C25.8963 25.594 25.9989 25.594 26.1016 25.594C26.2043 25.594 26.2996 25.594 26.3876 25.594C27.1649 25.594 27.6856 25.3813 27.9496 24.956C28.2136 24.5307 28.3456 23.8707 28.3456 22.976C28.3456 22.2867 28.2503 21.7587 28.0596 21.392C27.8836 21.0253 27.5463 20.842 27.0476 20.842C26.5636 20.842 26.2409 21.0473 26.0796 21.458C25.9329 21.8687 25.8596 22.3967 25.8596 23.042C25.8596 23.1887 25.8596 23.3427 25.8596 23.504C25.8596 23.6507 25.8596 23.8047 25.8596 23.966H22.1856V22.888C22.1856 21.8173 22.3763 20.9153 22.7576 20.182C23.1536 19.434 23.7109 18.8693 24.4296 18.488C25.1629 18.1067 26.0356 17.916 27.0476 17.916C28.0743 17.916 28.9543 18.0993 29.6876 18.466C30.4209 18.8327 30.9856 19.3753 31.3816 20.094C31.7776 20.798 31.9756 21.678 31.9756 22.734C31.9756 23.7753 31.7629 24.648 31.3376 25.352C30.9123 26.056 30.3989 26.4887 29.7976 26.65C30.2083 26.7967 30.5749 27.0313 30.8976 27.354C31.2349 27.6767 31.4989 28.1167 31.6896 28.674C31.8803 29.2167 31.9756 29.9133 31.9756 30.764C31.9756 31.8493 31.8143 32.81 31.4916 33.646C31.1836 34.482 30.6703 35.142 29.9516 35.626C29.2329 36.0953 28.2796 36.33 27.0916 36.33Z" fill="#6DD3CE"/>
</svg>
