<svg width="54" height="54" viewBox="0 0 54 54" fill="none" xmlns="http://www.w3.org/2000/svg">
<circle cx="27" cy="27" r="27" fill="#6DD3CE"/>
<path d="M26.1506 36V21.81C25.9893 21.898 25.8059 21.986 25.6006 22.074C25.3953 22.162 25.1753 22.2573 24.9406 22.36C24.7206 22.448 24.5006 22.536 24.2806 22.624C24.0753 22.712 23.8846 22.8 23.7086 22.888V20.16C23.8699 20.072 24.0973 19.9547 24.3906 19.808C24.6839 19.6467 24.9993 19.4707 25.3366 19.28C25.6739 19.0893 25.9893 18.8987 26.2826 18.708C26.5759 18.5027 26.7959 18.3267 26.9426 18.18H29.8246V36H26.1506Z" fill="white"/>
</svg>
