<svg width="32" height="33" viewBox="0 0 32 33" fill="none" xmlns="http://www.w3.org/2000/svg">
<path d="M11.7333 0.999997C10.7383 0.976204 9.74864 1.15163 8.82244 1.51596C7.89625 1.88028 7.05226 2.42615 6.34014 3.12146C5.62801 3.81676 5.06212 4.64745 4.67575 5.56468C4.28939 6.4819 4.09035 7.46712 4.09035 8.4624C4.09035 9.45767 4.28939 10.4429 4.67575 11.3601C5.06212 12.2773 5.62801 13.108 6.34014 13.8033C7.05226 14.4986 7.89625 15.0445 8.82244 15.4088C9.74864 15.7732 10.7383 15.9486 11.7333 15.9248C12.7283 15.9486 13.718 15.7732 14.6442 15.4088C15.5704 15.0445 16.4144 14.4986 17.1265 13.8033C17.8387 13.108 18.4046 12.2773 18.7909 11.3601C19.1773 10.4429 19.3763 9.45767 19.3763 8.4624C19.3763 7.46712 19.1773 6.4819 18.7909 5.56468C18.4046 4.64745 17.8387 3.81676 17.1265 3.12146C16.4144 2.42615 15.5704 1.88028 14.6442 1.51596C13.718 1.15163 12.7283 0.976204 11.7333 0.999997ZM7.46667 20.1872C5.48638 20.1872 3.58721 20.9739 2.18694 22.3741C0.786664 23.7744 0 25.6736 0 27.6539L0 32.9808H23.4667V27.6539C23.4667 25.6736 22.68 23.7744 21.2797 22.3741C19.8795 20.9739 17.9803 20.1872 16 20.1872H7.46667ZM26.6667 22.3333H25.6V33H32V27.6667C32 26.2522 31.4381 24.8956 30.4379 23.8954C29.4377 22.8952 28.0812 22.3333 26.6667 22.3333Z" fill="white"/>
<path d="M24.5333 9.53333C23.1188 9.53333 21.7622 10.0952 20.762 11.0954C19.7619 12.0956 19.2 13.4522 19.2 14.8667C19.2 16.2812 19.7619 17.6377 20.762 18.6379C21.7622 19.6381 23.1188 20.2 24.5333 20.2C25.9478 20.2 27.3043 19.6381 28.3045 18.6379C29.3047 17.6377 29.8666 16.2812 29.8666 14.8667C29.8666 13.4522 29.3047 12.0956 28.3045 11.0954C27.3043 10.0952 25.9478 9.53333 24.5333 9.53333Z" fill="white"/>
</svg>
