<svg width="54" height="54" viewBox="0 0 54 54" fill="none" xmlns="http://www.w3.org/2000/svg">
<circle cx="27" cy="27" r="26.5" stroke="#6DD3CE"/>
<path d="M26.9636 34.1989C25.903 34.1989 24.9584 34.0166 24.1298 33.652C23.3059 33.2827 22.6549 32.776 22.1767 32.1321C21.7032 31.4834 21.4593 30.7353 21.4451 29.8878H24.5417C24.5607 30.2429 24.6767 30.5554 24.8897 30.8253C25.1075 31.0904 25.3964 31.2964 25.7562 31.4432C26.1161 31.59 26.5209 31.6634 26.9707 31.6634C27.4395 31.6634 27.8538 31.5805 28.2136 31.4148C28.5734 31.2491 28.8552 31.0194 29.0588 30.7259C29.2624 30.4323 29.3642 30.0937 29.3642 29.7102C29.3642 29.322 29.2553 28.9787 29.0375 28.6804C28.8244 28.3774 28.5166 28.1406 28.1142 27.9702C27.7164 27.7997 27.243 27.7145 26.6937 27.7145H25.3372V25.456H26.6937C27.1577 25.456 27.5673 25.3755 27.9224 25.2145C28.2823 25.0535 28.5616 24.831 28.7605 24.5469C28.9593 24.258 29.0588 23.9219 29.0588 23.5384C29.0588 23.1738 28.9712 22.8542 28.796 22.5795C28.6255 22.3002 28.3841 22.0824 28.0716 21.9261C27.7638 21.7699 27.4039 21.6918 26.992 21.6918C26.5753 21.6918 26.1942 21.7675 25.8485 21.919C25.5029 22.0658 25.2259 22.2765 25.0176 22.5511C24.8092 22.8258 24.698 23.1477 24.6838 23.517H21.7363C21.7505 22.679 21.9896 21.9403 22.4537 21.3011C22.9177 20.6619 23.5427 20.1624 24.3287 19.8026C25.1194 19.438 26.0119 19.2557 27.0062 19.2557C28.01 19.2557 28.8883 19.438 29.6412 19.8026C30.394 20.1671 30.9788 20.6596 31.3954 21.2798C31.8168 21.8954 32.0252 22.5866 32.0204 23.3537C32.0252 24.1681 31.7718 24.8475 31.2605 25.392C30.7538 25.9366 30.0933 26.2822 29.2789 26.429V26.5426C30.349 26.6799 31.1634 27.0516 31.7221 27.6577C32.2856 28.259 32.5649 29.0118 32.5602 29.9162C32.5649 30.7448 32.3258 31.4811 31.8429 32.125C31.3646 32.7689 30.7041 33.2756 29.8613 33.6449C29.0185 34.0142 28.0526 34.1989 26.9636 34.1989Z" fill="#6DD3CE"/>
</svg>
