<svg width="54" height="54" viewBox="0 0 54 54" fill="none" xmlns="http://www.w3.org/2000/svg">
<circle cx="27" cy="27" r="26.5" stroke="#6DD3CE"/>
<path d="M21.3801 34V31.7841L26.5577 26.9901C26.998 26.5639 27.3674 26.1804 27.6657 25.8395C27.9687 25.4986 28.1983 25.1648 28.3546 24.8381C28.5108 24.5066 28.589 24.1491 28.589 23.7656C28.589 23.3395 28.4919 22.9725 28.2978 22.6648C28.1036 22.3523 27.8385 22.1132 27.5023 21.9474C27.1661 21.777 26.785 21.6918 26.3588 21.6918C25.9138 21.6918 25.5255 21.7817 25.1941 21.9616C24.8626 22.1416 24.6069 22.3996 24.427 22.7358C24.2471 23.072 24.1571 23.4721 24.1571 23.9361H21.2381C21.2381 22.9844 21.4535 22.1581 21.8844 21.4574C22.3153 20.7566 22.919 20.2145 23.6955 19.831C24.472 19.4474 25.3669 19.2557 26.3801 19.2557C27.4218 19.2557 28.3285 19.4403 29.1003 19.8097C29.8768 20.1742 30.4805 20.6809 30.9114 21.3295C31.3423 21.9782 31.5577 22.7216 31.5577 23.5597C31.5577 24.1089 31.4488 24.651 31.231 25.1861C31.0179 25.7211 30.6368 26.3153 30.0875 26.9688C29.5383 27.6174 28.7641 28.3963 27.7651 29.3054L25.6415 31.3864V31.4858H31.7495V34H21.3801Z" fill="#6DD3CE"/>
</svg>
