<svg width="54" height="54" viewBox="0 0 54 54" fill="none" xmlns="http://www.w3.org/2000/svg">
<circle cx="27" cy="27" r="26.5" stroke="#6DD3CE"/>
<path d="M22.2516 36V33.404L26.5196 26.848C26.8423 26.364 27.1429 25.8947 27.4216 25.44C27.7149 24.9853 27.9496 24.5233 28.1256 24.054C28.3163 23.5847 28.4116 23.0933 28.4116 22.58C28.4116 22.0667 28.3089 21.6853 28.1036 21.436C27.8983 21.1867 27.6196 21.062 27.2676 21.062C26.8716 21.062 26.5636 21.172 26.3436 21.392C26.1236 21.612 25.9696 21.9053 25.8816 22.272C25.8083 22.6387 25.7716 23.0493 25.7716 23.504V24.384H22.2076V23.438C22.2076 22.382 22.3763 21.4433 22.7136 20.622C23.0509 19.786 23.5863 19.1333 24.3196 18.664C25.0529 18.18 26.0136 17.938 27.2016 17.938C28.8003 17.938 30.0029 18.356 30.8096 19.192C31.6309 20.0133 32.0416 21.1647 32.0416 22.646C32.0416 23.3647 31.9243 24.032 31.6896 24.648C31.4696 25.264 31.1689 25.8653 30.7876 26.452C30.4209 27.024 30.0249 27.6253 29.5996 28.256L26.3436 33.118H31.5576V36H22.2516Z" fill="#6DD3CE"/>
</svg>
